<svg xmlns="http://www.w3.org/2000/svg" viewBox="0 0 240 240" role="img">
  <defs>
    <linearGradient id="g" x1="0" x2="1" y1="0" y2="1">
      <stop offset="0" stop-color="#7dd3fc"/>
      <stop offset="1" stop-color="#22d3ee"/>
    </linearGradient>
  </defs>
  <circle cx="120" cy="120" r="104" fill="#e0f2fe"/>
  <polygon points="118,28 168,64 158,126 111,106" fill="#38bdf8"/>
  <polygon points="82,68 118,28 111,106 70,123" fill="#0ea5e9"/>
  <polygon points="70,123 111,106 132,170 84,184" fill="#67e8f9"/>
  <polygon points="111,106 158,126 166,184 132,170" fill="#0284c7"/>
  <polygon points="89,83 116,66 143,84 137,115 105,116" fill="#ffe4c7"/>
  <polygon points="91,82 119,50 149,86 139,77 116,72" fill="#facc15"/>
  <circle cx="109" cy="94" r="4" fill="#172033"/>
  <circle cx="130" cy="94" r="4" fill="#172033"/>
  <path d="M111 106c9 8 18 8 27 0" fill="none" stroke="#172033" stroke-width="4" stroke-linecap="round"/>
  <polygon points="52,77 72,65 68,87" fill="#22c55e"/>
  <polygon points="178,62 197,76 176,84" fill="#22c55e"/>
  <polygon points="50,154 72,144 68,168" fill="#38bdf8"/>
  <path d="M74 205h92" stroke="#0f172a" stroke-width="8" stroke-linecap="round" opacity=".16"/>
</svg>
