<svg xmlns="http://www.w3.org/2000/svg" width="1024" height="1024" viewBox="0 0 1024 1024" fill="none">

  <defs>
    <filter id="softShadow" x="-30%" y="-30%" width="160%" height="160%">
      <feDropShadow dx="0" dy="28" stdDeviation="22" flood-color="#1f2937" flood-opacity="0.18"/>
    </filter>
    <filter id="smallShadow" x="-40%" y="-40%" width="180%" height="180%">
      <feDropShadow dx="0" dy="10" stdDeviation="10" flood-color="#1f2937" flood-opacity="0.18"/>
    </filter>
    <filter id="glow" x="-80%" y="-80%" width="260%" height="260%">
      <feGaussianBlur stdDeviation="16" result="blur"/>
      <feMerge>
        <feMergeNode in="blur"/>
        <feMergeNode in="SourceGraphic"/>
      </feMerge>
    </filter>
    <linearGradient id="skin" x1="0" y1="0" x2="1" y2="1">
      <stop offset="0" stop-color="#FFE5B4"/>
      <stop offset="0.55" stop-color="#FFD28B"/>
      <stop offset="1" stop-color="#E9AD5E"/>
    </linearGradient>
    <linearGradient id="paper" x1="0" y1="0" x2="1" y2="1">
      <stop offset="0" stop-color="#FFFFFF"/>
      <stop offset="1" stop-color="#E9EEF5"/>
    </linearGradient>
    <linearGradient id="dark" x1="0" y1="0" x2="1" y2="1">
      <stop offset="0" stop-color="#394150"/>
      <stop offset="1" stop-color="#111827"/>
    </linearGradient>
  </defs>

  <defs>
    <linearGradient id="accent" x1="0" y1="0" x2="1" y2="1">
      <stop offset="0" stop-color="#FDBA74"/>
      <stop offset="0.58" stop-color="#F97316"/>
      <stop offset="1" stop-color="#334155"/>
    </linearGradient>
    <radialGradient id="ambient" cx="50%" cy="50%" r="50%">
      <stop offset="0" stop-color="#F97316" stop-opacity="0.26"/>
      <stop offset="0.55" stop-color="#F97316" stop-opacity="0.10"/>
      <stop offset="1" stop-color="#F97316" stop-opacity="0"/>
    </radialGradient>
  </defs>
  <circle cx="560" cy="520" r="380" fill="url(#ambient)"/>
  <ellipse cx="512" cy="820" rx="290" ry="64" fill="#111827" opacity="0.10"/>

  <g filter="url(#softShadow)">
    <g>
      <path d="M386 564 L508 621 L646 559 L701 741 L529 817 L336 744 Z" fill="url(#accent)"/>
      <path d="M386 564 L508 621 L470 817 L336 744 Z" fill="#F97316" opacity="0.70"/>
      <path d="M508 621 L646 559 L701 741 L550 701 Z" fill="#7C2D12" opacity="0.36"/>
      <path d="M357 613 L274 676 L320 741 L399 662 Z" fill="#9A3412"/>
      <path d="M640 607 L738 651 L707 724 L610 663 Z" fill="#C2410C"/>
      <path d="M423 789 L383 895 L466 895 L508 811 Z" fill="#273241"/>
      <path d="M575 791 L625 895 L708 895 L662 807 Z" fill="#273241"/>
    </g>
    <g>
      <path d="M322 323 L442 232 L619 249 L709 337 L636 341 L511 320 L392 356 Z" fill="url(#accent)"/>
      <path d="M442 232 L504 307 L392 356 L322 323 Z" fill="#FDBA74" opacity="0.76"/>
      <path d="M504 307 L619 249 L709 337 L579 329 Z" fill="#F97316" opacity="0.78"/>
      <path d="M623 337 L751 363 L647 390 Z" fill="#9A3412"/>

      <path d="M355 328 L435 266 L585 276 L672 350 L650 507 L548 585 L392 548 L332 440 Z" fill="url(#skin)"/>
      <path d="M435 266 L504 316 L455 384 L355 328 Z" fill="#FFEBC4" opacity="0.64"/>
      <path d="M504 316 L585 276 L672 350 L570 390 Z" fill="#F7C16F" opacity="0.52"/>
      <path d="M332 440 L455 384 L548 585 L392 548 Z" fill="#F3B75F" opacity="0.32"/>
      <ellipse cx="445" cy="414" rx="20" ry="34" fill="#1F2937"/>
      <ellipse cx="569" cy="417" rx="20" ry="34" fill="#1F2937"/>
      <path d="M433 292 L494 316 L536 307 L620 341 L610 289 L525 243 L420 246 Z" fill="#1F2937" opacity="0.90"/>

      <path d="M635 497 L748 517 L686 584 Z" fill="#FB923C" opacity="0.9"/>
    </g>
    <g filter="url(#smallShadow)">
      <circle cx="318" cy="591" r="82" fill="#F8FAFC" opacity="0.82"/>
      <circle cx="318" cy="591" r="56" fill="#E0F2FE" opacity="0.65"/>
      <circle cx="318" cy="591" r="82" stroke="#334155" stroke-width="22"/>
      <path d="M376 653 L455 735" stroke="#334155" stroke-width="34" stroke-linecap="round"/>
    </g>
    <g filter="url(#smallShadow)">
      <path d="M584 666 L664 625 L737 666 L723 756 L628 779 L571 727 Z" fill="#FED7AA"/>
      <path d="M584 666 L664 625 L665 704 L571 727 Z" fill="#FDBA74"/>
      <path d="M665 704 L737 666 L723 756 L628 779 Z" fill="#F97316"/>
      <path d="M644 626 L656 579 L703 592 L691 638 Z" fill="#FB923C"/>
      <path d="M540 693 L486 688 L493 638 L550 647 Z" fill="#0EA5E9" opacity="0.9"/>
      <path d="M731 650 L774 612 L810 649 L766 692 Z" fill="#FDBA74"/>
      <path d="M596 796 L546 826 L508 791 L559 756 Z" fill="#EA580C"/>
    </g>
    <path d="M615 574 C690 489 774 501 830 585 C864 636 827 701 771 688" stroke="#FDE68A" stroke-width="10" stroke-linecap="round" stroke-dasharray="4 24" opacity="0.9"/>
    <circle cx="612" cy="577" r="16" fill="#FDE68A"/>
    <circle cx="772" cy="689" r="16" fill="#FDE68A"/>
  </g>

</svg>
